<?xml version="1.0" encoding="utf-8"?>
<!-- Generator: Adobe Illustrator 25.4.1, SVG Export Plug-In . SVG Version: 6.00 Build 0)  -->
<svg version="1.1" id="レイヤー_1" xmlns="http://www.w3.org/2000/svg" xmlns:xlink="http://www.w3.org/1999/xlink" x="0px"
	 y="0px" viewBox="0 0 141.73 121.89" style="enable-background:new 0 0 141.73 121.89;" xml:space="preserve">
<style type="text/css">
	.st0{fill-rule:evenodd;clip-rule:evenodd;fill:#004E87;}
	.st1{fill:#CD1B2F;}
	.st2{fill:#004E87;}
</style>
<path class="st0" d="M88.08,87.71c23.54-16.25,34.91-40.6,25.39-54.36c-9.5-13.78-36.3-11.74-59.83,4.51
	c-23.53,16.27-34.9,40.62-25.38,54.38C37.77,106.01,64.55,103.98,88.08,87.71z M23.17,95.76c-10.02-14.49,3.22-41,29.56-59.21
	c26.35-18.21,55.83-21.22,65.84-6.73c10,14.48-3.23,41-29.59,59.22C62.65,107.23,33.17,110.25,23.17,95.76z"/>
<path class="st1" d="M79.24,31.59c4.04,0,7.31-3.28,7.31-7.31c0-4.05-3.27-7.31-7.31-7.31c-4.03,0-7.3,3.26-7.3,7.31
	C71.94,28.31,75.21,31.59,79.24,31.59z"/>
<path class="st2" d="M47.51,44.07v21.75c0,3.24-2.61,5.89-5.88,5.89h-4.28v9.98h4.99c8.37,0,15.16-6.79,15.16-15.16V44.07H47.51z"/>
<path class="st2" d="M101.53,44.07h-8.91h-9.99H68.72c-5.57,0-10.52,4.52-10.52,10.11c0,4.42,2.15,7.1,5.36,9.59l7.13,5.35
	c2.14,2.02,0.71,3.92-2.31,3.92H58.2v8.65h13.25c5.59,0,10.28-3.63,10.28-10.28c0-5.3-3.04-7.51-4.72-9.06
	c-1.63-1.53-6.45-4.61-8.56-6.42c-1.51-1.43-0.25-2.94,1.7-2.94h12.48v28.7h9.99v-28.7h8.91V44.07z"/>
</svg>
