<?xml version="1.0" encoding="UTF-8"?>
<svg xmlns="http://www.w3.org/2000/svg" version="1.1" viewBox="0 0 108 72.62">
  <!-- Generator: Adobe Illustrator 29.8.4, SVG Export Plug-In . SVG Version: 2.1.1 Build 6)  -->
  <defs>
    <style>
      .st0 {
        fill: #271c80;
      }

      .st1 {
        fill: #fff;
      }

      .st2 {
        display: none;
      }
    </style>
  </defs>
  <g id="ctr_small" class="st2">
    <g>
      <path class="st1" d="M386.46,394.77c0,.87.74,1.54,1.64,1.54s1.72-.64,1.72-1.54v-3.42l.45-.46h-1.38l.46.46v3.42c0,.61-.48,1.1-1.1,1.1s-1.17-.48-1.17-1.1v-3.42l.46-.46h-1.54l.46.46v3.42h0ZM392.42,395.73v-3.97l2.84,4.43h.18v-4.84l.46-.46h-1.38l.46.46v3.37l-2.39-3.83h-1.1l.45.46v4.38l-.45.46h1.38l-.46-.46h0ZM397.36,390.89l.42.42v4.46l-.42.42h1.43l-.42-.42v-4.46l.42-.42h-1.43ZM401.47,390.89h-1.5l.43.42,1.49,4.88h.27l1.54-4.88.43-.42h-1.28l.41.41-1.12,3.67-1.09-3.67.41-.41h0ZM408.34,396.19v-.97l-.56.58h-1.61v-2.23h1.2l.42.42v-1.24l-.42.42h-1.2v-1.89h1.61l.56.57v-.96h-3.17l.41.42v4.46l-.41.42h3.17ZM410.72,395.77v-2.05h.8l1.28,2.47h.88l-.41-.42-1.19-2.17c.59-.18,1-.74,1-1.24,0-.9-.84-1.46-1.72-1.46h-1.64l.41.42v4.46l-.41.42h1.42l-.42-.42h0ZM410.72,391.28h.65c.57,0,1.02.49,1.02,1.06s-.46.98-1.02.98h-.65v-2.04h0ZM417.53,394.71c0-.52-.24-.84-.49-1.02l-1.08-.78c-.39-.28-.58-.64-.58-.91,0-.56.48-.75.76-.75.15,0,.26.06.34.06l.47.5.49-.74-1.05-.2c-.07-.02-.12-.03-.25-.03-.93,0-1.35.79-1.35,1.3,0,.4.21.86.68,1.21l1.09.78c.3.21.38.51.38.77,0,.45-.28.94-.88.94-.14,0-.27-.03-.37-.07l-.5-.59-.46.83,1.01.2s.17.04.31.04c.64,0,1.47-.54,1.47-1.54M419.07,390.89l.42.42v4.46l-.42.42h1.43l-.42-.42v-4.46l.42-.42h-1.43ZM423.88,395.77v-4.48h1.01l.57.57v-.96h-3.73v.96l.58-.57h1v4.48l-.41.42h1.42l-.42-.42h0ZM426.67,391.31l1.34,2.42v2.04l-.42.42h1.43l-.42-.42v-2.04l1.37-2.41.44-.43h-1.31l.41.41-1.11,1.98-1.06-1.98.41-.41h-1.5l.43.42h0ZM435.32,392.83c-.19,0-.5.09-.8.27-.52.31-1.08,1-1.08,2.04,0,.52.25,1.11.94,1.11.33,0,.8-.22,1.11-.5.49-.45.79-1.21.79-1.88,0-.62-.33-1.04-.96-1.04M434.04,394.97c0-1.11.56-1.7.79-1.8.07-.03.17-.06.25-.06.37,0,.59.28.59.86.01.97-.49,1.85-.81,1.96-.06.02-.16.05-.23.05-.42,0-.59-.45-.59-1.01M437.4,393.01l-.2.2.02.07h.62c-.1.67-.19,1.25-.33,2.19-.2,1.4-.37,1.89-.52,2.01-.04.04-.12.07-.19.07-.09,0-.23-.07-.33-.11-.09-.04-.16,0-.21.05-.06.07-.13.17-.13.25,0,.15.19.22.32.22.14,0,.5-.12.82-.52.25-.31.6-1.04.89-2.72.05-.31.11-.63.24-1.45l.76-.07.16-.2h-.88c.22-1.38.41-1.8.73-1.8.22,0,.41.09.58.25.05.05.13.05.21,0,.06-.05.15-.17.15-.28,0-.15-.19-.31-.45-.31-.43,0-.89.25-1.2.63-.29.35-.49.92-.59,1.52h-.49ZM445.25,396.19l1.21-3.84,1.18,3.84h.27l1.54-4.88.43-.42h-1.28l.41.41-1.12,3.67-1.09-3.67.41-.41h-1.5l.42.42.11.35-1.02,3.31-1.09-3.67.41-.41h-1.5l.43.42,1.49,4.88h.27ZM450.89,395.78l.38-1.12h1.75l.37,1.12-.41.41h1.5l-.42-.43-1.65-4.87h-.27l-1.68,4.87-.43.43h1.28l-.41-.41h0ZM452.17,392.06l.73,2.19h-1.48l.76-2.19h0ZM458.1,394.71c0-.52-.24-.84-.49-1.02l-1.08-.78c-.39-.28-.58-.64-.58-.91,0-.56.48-.75.76-.75.15,0,.26.06.34.06l.47.5.49-.74-1.05-.2c-.07-.02-.12-.03-.25-.03-.93,0-1.35.79-1.35,1.3,0,.4.21.86.68,1.21l1.09.78c.3.21.38.51.38.77,0,.45-.28.94-.88.94-.14,0-.27-.03-.37-.07l-.5-.59-.46.83,1.02.2s.17.04.31.04c.64,0,1.47-.54,1.47-1.54M460.49,393.53h2.23v2.24l-.42.42h1.43l-.42-.42v-4.46l.42-.42h-1.43l.42.42v1.82h-2.23v-1.82l.42-.42h-1.42l.41.42v4.46l-.41.42h1.42l-.42-.42v-2.24h0ZM465.19,390.89l.42.42v4.46l-.42.42h1.43l-.42-.42v-4.46l.42-.42h-1.43ZM468.99,395.73v-3.97l2.79,4.43h.24v-4.84l.46-.46h-1.38l.46.46v3.37l-2.39-3.83h-1.1l.45.46v4.38l-.45.46h1.38l-.46-.46h0ZM476.85,393.78v1.71c-.12.13-.38.38-.87.38-1.18,0-1.77-1.19-1.77-2.33s.75-2.33,1.77-2.33c.27,0,.47.06.65.25l.58.57v-.92c-.31-.16-.63-.3-1.23-.3-1.45,0-2.46,1.29-2.46,2.72s1.01,2.72,2.46,2.72c.82,0,1.17-.2,1.45-.39v-2.09l.41-.42h-1.42l.42.42h0ZM480.78,395.77v-4.48h1.01l.57.57v-.96h-3.73v.96l.58-.57h1v4.48l-.41.42h1.42l-.42-.42h0ZM483.17,393.54c0,1.35.76,2.77,2.12,2.77s2.13-1.42,2.13-2.77-.76-2.77-2.13-2.77-2.12,1.42-2.12,2.77M485.29,395.9c-1.06,0-1.43-1.27-1.43-2.36s.37-2.36,1.43-2.36,1.44,1.27,1.44,2.36-.37,2.36-1.44,2.36M489.39,395.73v-3.97l2.76,4.43h.27v-4.84l.46-.46h-1.38l.46.46v3.37l-2.39-3.83h-1.1l.45.46v4.38l-.45.46h1.38l-.46-.46h0Z"/>
      <polygon class="st1" points="432.27 376 432.27 377.77 433.39 377.77 435.35 385.66 438.11 385.66 439.42 380.72 440.68 385.66 443.43 385.66 445.51 377.77 446.57 377.77 446.57 376 442.78 376 442.78 377.77 444.03 377.77 442.67 382.91 440.97 376 439.23 376 437.37 382.96 436.04 377.77 437.4 377.77 437.4 376 432.27 376 432.27 376"/>
    </g>
  </g>
  <g id="ctr_large" class="st2">
    <g>
      <path class="st1" d="M314.08,406.36c0,2.06,1.74,3.64,3.89,3.64s4.06-1.51,4.06-3.64v-8.1l1.06-1.08h-3.27l1.08,1.08v8.1c0,1.45-1.15,2.6-2.59,2.6s-2.76-1.13-2.76-2.6v-8.1l1.08-1.08h-3.64l1.08,1.08v8.1h0ZM328.21,408.64v-9.4l6.73,10.48h.44v-11.46l1.08-1.08h-3.28l1.08,1.08v7.97l-5.66-9.06h-2.6l1.06,1.08v10.38l-1.06,1.09h3.28l-1.08-1.09h0ZM339.88,397.18l1,1v10.55l-1,1h3.38l-1-1v-10.55l1-1h-3.38ZM349.62,397.18h-3.55l1.02,1,3.53,11.55h.64l3.64-11.55,1.02-1h-3.02l.98.98-2.66,8.68-2.57-8.68.98-.98h0ZM365.89,409.72v-2.3l-1.34,1.36h-3.81v-5.27h2.83l1,1v-2.93l-1,1h-2.83v-4.46h3.81l1.34,1.34v-2.28h-7.51l.98,1v10.55l-.98,1h7.51ZM371.52,408.72v-4.85h1.89l3.04,5.85h2.08l-.98-1-2.81-5.15c1.4-.43,2.36-1.74,2.36-2.94,0-2.12-1.98-3.46-4.06-3.46h-3.89l.98,1v10.55l-.98,1h3.36l-1-1h0ZM371.52,398.11h1.53c1.34,0,2.4,1.15,2.4,2.51s-1.09,2.32-2.4,2.32h-1.53v-4.83h0ZM387.64,406.24c0-1.23-.57-2-1.17-2.4l-2.55-1.85c-.92-.66-1.38-1.51-1.38-2.15,0-1.32,1.13-1.79,1.81-1.79.36,0,.62.15.81.15l1.11,1.19,1.17-1.74-2.49-.47c-.17-.04-.28-.06-.6-.06-2.19,0-3.19,1.87-3.19,3.08,0,.96.49,2.04,1.62,2.87l2.57,1.85c.7.49.89,1.21.89,1.83,0,1.06-.66,2.21-2.08,2.21-.34,0-.64-.06-.87-.17l-1.19-1.4-1.08,1.96,2.4.47s.4.08.74.08c1.51,0,3.49-1.28,3.49-3.66M391.28,397.18l1,1v10.55l-1,1h3.38l-1-1v-10.55l1-1h-3.38ZM402.66,408.72v-10.61h2.38l1.34,1.34v-2.28h-8.83v2.28l1.36-1.34h2.36v10.61l-.98,1h3.36l-1-1h0ZM409.27,398.18l3.17,5.72v4.83l-1,1h3.38l-1-1v-4.83l3.23-5.7,1.04-1.02h-3.1l.98.98-2.64,4.7-2.51-4.7.98-.98h-3.55l1.02,1h0ZM429.74,401.78c-.46,0-1.18.21-1.91.64-1.22.72-2.54,2.37-2.54,4.84,0,1.24.58,2.62,2.23,2.62.78,0,1.89-.51,2.63-1.18,1.17-1.06,1.85-2.88,1.85-4.45,0-1.47-.78-2.46-2.26-2.46M426.72,406.83c0-2.62,1.33-4.03,1.87-4.26.16-.07.41-.14.58-.14.88,0,1.4.67,1.4,2.03.04,2.3-1.17,4.38-1.91,4.63-.14.05-.37.12-.55.12-.99,0-1.4-1.06-1.4-2.38M434.67,402.2l-.48.46.05.18h1.47c-.23,1.59-.44,2.97-.78,5.19-.48,3.3-.88,4.47-1.22,4.75-.11.11-.28.16-.44.16-.21,0-.55-.16-.78-.26-.21-.11-.39.02-.5.12-.14.16-.3.4-.3.6,0,.35.46.53.76.53.34,0,1.18-.28,1.94-1.22.6-.74,1.41-2.45,2.1-6.45.12-.74.26-1.48.57-3.43l1.8-.18.39-.46h-2.08c.53-3.27.97-4.26,1.73-4.26.53,0,.97.21,1.36.58.12.12.32.12.5-.02.14-.12.35-.41.35-.65.02-.35-.46-.74-1.06-.74-1.02,0-2.1.6-2.84,1.48-.69.83-1.15,2.17-1.39,3.6h-1.15ZM453.27,409.72l2.87-9.08,2.79,9.08h.64l3.64-11.55,1.02-1h-3.02l.98.98-2.66,8.68-2.57-8.68.98-.98h-3.55l1,1,.25.83-2.4,7.83-2.57-8.68.98-.98h-3.55l1.02,1,3.53,11.55h.64ZM466.61,408.75l.91-2.66h4.15l.87,2.66-.98.98h3.55l-1-1.02-3.91-11.53h-.64l-3.98,11.53-1.02,1.02h3.02l-.98-.98h0ZM469.63,399.96l1.72,5.19h-3.51l1.79-5.19h0ZM483.67,406.24c0-1.23-.58-2-1.17-2.4l-2.55-1.85c-.91-.66-1.38-1.51-1.38-2.15,0-1.32,1.13-1.79,1.81-1.79.36,0,.62.15.81.15l1.11,1.19,1.17-1.74-2.49-.47c-.17-.04-.28-.06-.59-.06-2.19,0-3.19,1.87-3.19,3.08,0,.96.49,2.04,1.62,2.87l2.57,1.85c.7.49.89,1.21.89,1.83,0,1.06-.66,2.21-2.08,2.21-.34,0-.64-.06-.87-.17l-1.19-1.4-1.08,1.96,2.4.47s.41.08.75.08c1.51,0,3.49-1.28,3.49-3.66M489.32,403.43h5.27v5.29l-1,1h3.38l-1-1v-10.55l1-1h-3.38l1,1v4.32h-5.27v-4.32l1-1h-3.36l.98,1v10.55l-.98,1h3.36l-1-1v-5.29h0ZM500.47,397.18l1,1v10.55l-1,1h3.38l-1-1v-10.55l1-1h-3.38ZM509.46,408.64v-9.4l6.6,10.49h.57v-11.47l1.08-1.08h-3.28l1.08,1.08v7.97l-5.66-9.06h-2.6l1.06,1.08v10.38l-1.06,1.09h3.28l-1.08-1.09h0ZM528.07,404.03v4.04c-.3.3-.89.89-2.06.89-2.79,0-4.19-2.81-4.19-5.51s1.77-5.51,4.19-5.51c.64,0,1.11.15,1.53.6l1.38,1.36v-2.17c-.75-.38-1.49-.72-2.91-.72-3.42,0-5.83,3.06-5.83,6.45s2.4,6.44,5.83,6.44c1.94,0,2.76-.47,3.45-.91v-4.96l.98-1h-3.36l1,1h0ZM537.36,408.72v-10.61h2.38l1.34,1.34v-2.28h-8.83v2.28l1.36-1.34h2.36v10.61l-.98,1h3.36l-1-1h0ZM543.03,403.45c0,3.19,1.81,6.55,5.02,6.55s5.04-3.36,5.04-6.55-1.81-6.55-5.04-6.55-5.02,3.36-5.02,6.55M548.05,409.04c-2.51,0-3.38-3-3.38-5.59s.87-5.59,3.38-5.59,3.4,3,3.4,5.59-.87,5.59-3.4,5.59M557.74,408.64v-9.4l6.52,10.48h.64v-11.46l1.08-1.08h-3.28l1.08,1.08v7.97l-5.66-9.06h-2.6l1.06,1.08v10.38l-1.06,1.09h3.28l-1.08-1.09h0Z"/>
      <polygon class="st1" points="422.67 362 422.67 366.17 425.31 366.17 429.95 384.79 436.45 384.79 439.54 373.14 442.51 384.79 449.01 384.79 453.9 366.17 456.41 366.17 456.41 362 447.46 362 447.46 366.17 450.42 366.17 447.21 378.29 443.21 362 439.09 362 434.71 378.42 431.56 366.17 434.78 366.17 434.78 362 422.67 362 422.67 362"/>
    </g>
  </g>
  <g id="left_small" class="st2">
    <g>
      <polygon class="st1" points="376 382 376 383.78 377.13 383.78 379.11 391.74 381.89 391.74 383.21 386.76 384.47 391.74 387.25 391.74 389.34 383.78 390.41 383.78 390.41 382 386.59 382 386.59 383.78 387.85 383.78 386.48 388.96 384.77 382 383.01 382 381.14 389.01 379.8 383.78 381.17 383.78 381.17 382 376 382 376 382"/>
      <path class="st1" d="M394.27,388.75c0,.87.74,1.53,1.64,1.53s1.71-.64,1.71-1.53v-3.41l.45-.46h-1.38l.46.46v3.41c0,.61-.48,1.09-1.09,1.09s-1.17-.47-1.17-1.09v-3.41l.46-.46h-1.53l.46.46v3.41h0ZM400.22,389.71v-3.96l2.84,4.42h.18v-4.83l.46-.46h-1.38l.46.46v3.36l-2.39-3.82h-1.1l.45.46v4.37l-.45.46h1.38l-.46-.46h0ZM405.15,384.88l.42.42v4.44l-.42.42h1.43l-.42-.42v-4.44l.42-.42h-1.43ZM409.26,384.88h-1.5l.43.42,1.49,4.86h.27l1.53-4.86.43-.42h-1.27l.41.41-1.12,3.65-1.09-3.65.41-.41h0ZM416.13,390.16v-.97l-.57.57h-1.61v-2.22h1.19l.42.42v-1.24l-.42.42h-1.19v-1.88h1.61l.57.56v-.96h-3.17l.41.42v4.44l-.41.42h3.17ZM418.5,389.74v-2.04h.8l1.28,2.46h.88l-.41-.42-1.18-2.17c.59-.18,1-.74,1-1.24,0-.9-.83-1.46-1.71-1.46h-1.64l.41.42v4.44l-.41.42h1.42l-.42-.42h0ZM418.5,385.27h.65c.57,0,1.01.48,1.01,1.06s-.46.98-1.01.98h-.65v-2.03h0ZM425.31,388.69c0-.52-.24-.84-.49-1.01l-1.08-.78c-.39-.28-.58-.64-.58-.91,0-.55.48-.75.76-.75.15,0,.26.06.34.06l.47.5.49-.73-1.05-.2c-.07-.02-.12-.03-.25-.03-.92,0-1.35.79-1.35,1.3,0,.4.21.86.68,1.21l1.08.78c.3.21.38.51.38.77,0,.45-.28.93-.88.93-.14,0-.27-.03-.37-.07l-.5-.59-.46.82,1.01.2s.17.04.32.04c.64,0,1.47-.54,1.47-1.54M426.84,384.88l.42.42v4.44l-.42.42h1.43l-.42-.42v-4.44l.42-.42h-1.43ZM431.64,389.74v-4.47h1l.57.56v-.96h-3.72v.96l.57-.56h1v4.47l-.41.42h1.42l-.42-.42h0ZM434.43,385.3l1.34,2.41v2.03l-.42.42h1.43l-.42-.42v-2.03l1.36-2.4.44-.43h-1.31l.41.41-1.11,1.98-1.06-1.98.41-.41h-1.5l.43.42h0ZM443.38,386.82c-.19,0-.5.09-.81.27-.51.3-1.07,1-1.07,2.04,0,.52.25,1.1.94,1.1.33,0,.8-.22,1.11-.5.49-.45.78-1.21.78-1.88,0-.62-.33-1.03-.95-1.03M442.1,388.94c0-1.1.56-1.7.79-1.79.07-.03.17-.06.25-.06.37,0,.59.28.59.86.01.97-.49,1.85-.8,1.95-.06.02-.16.05-.23.05-.42,0-.59-.45-.59-1.01M445.46,386.99l-.2.19.02.07h.62c-.1.67-.19,1.25-.33,2.19-.2,1.39-.37,1.88-.51,2-.04.04-.12.07-.19.07-.09,0-.23-.07-.33-.11-.09-.04-.16,0-.21.05-.06.07-.13.17-.13.25,0,.15.19.22.32.22.14,0,.5-.12.82-.51.25-.31.6-1.03.89-2.72.05-.31.11-.62.24-1.44l.76-.07.16-.19h-.88c.22-1.38.41-1.79.73-1.79.22,0,.41.09.57.25.05.05.13.05.21,0,.06-.05.15-.17.15-.28,0-.15-.19-.31-.45-.31-.43,0-.89.25-1.2.62-.29.35-.49.91-.59,1.52h-.49ZM453.92,390.16l1.21-3.83,1.18,3.83h.27l1.54-4.86.43-.42h-1.27l.41.41-1.12,3.65-1.09-3.65.41-.41h-1.5l.42.42.11.35-1.01,3.3-1.08-3.65.41-.41h-1.5l.43.42,1.49,4.86h.27ZM459.55,389.75l.39-1.12h1.75l.37,1.12-.41.41h1.5l-.42-.43-1.65-4.86h-.27l-1.68,4.86-.43.43h1.27l-.41-.41h0ZM460.82,386.05l.73,2.19h-1.48l.75-2.19h0ZM466.75,388.69c0-.52-.24-.84-.49-1.01l-1.08-.78c-.39-.28-.58-.64-.58-.91,0-.55.48-.75.76-.75.15,0,.26.06.34.06l.47.5.49-.73-1.05-.2c-.07-.02-.12-.03-.25-.03-.92,0-1.35.79-1.35,1.3,0,.4.21.86.68,1.21l1.09.78c.3.21.38.51.38.77,0,.45-.28.93-.88.93-.14,0-.27-.03-.37-.07l-.5-.59-.46.82,1.01.2s.17.04.31.04c.64,0,1.47-.54,1.47-1.54M469.13,387.51h2.23v2.23l-.42.42h1.43l-.42-.42v-4.44l.42-.42h-1.43l.42.42v1.82h-2.23v-1.82l.42-.42h-1.42l.41.42v4.44l-.41.42h1.42l-.42-.42v-2.23h0ZM473.83,384.88l.42.42v4.44l-.42.42h1.43l-.42-.42v-4.44l.42-.42h-1.43ZM477.63,389.71v-3.96l2.79,4.42h.24v-4.83l.46-.46h-1.38l.46.46v3.36l-2.39-3.82h-1.09l.45.46v4.37l-.45.46h1.38l-.46-.46h0ZM485.48,387.76v1.7c-.12.12-.38.37-.87.37-1.18,0-1.77-1.18-1.77-2.32s.74-2.32,1.77-2.32c.27,0,.47.06.64.25l.58.57v-.91c-.31-.16-.63-.3-1.23-.3-1.45,0-2.46,1.29-2.46,2.71s1.01,2.71,2.46,2.71c.82,0,1.17-.2,1.45-.38v-2.09l.41-.42h-1.42l.42.42h0ZM489.71,389.74v-4.47h1l.56.56v-.96h-3.72v.96l.57-.56h1v4.47l-.41.42h1.42l-.42-.42h0ZM492.41,387.52c0,1.34.76,2.76,2.12,2.76s2.13-1.42,2.13-2.76-.76-2.76-2.13-2.76-2.12,1.41-2.12,2.76M494.53,389.88c-1.06,0-1.43-1.26-1.43-2.36s.37-2.36,1.43-2.36,1.43,1.26,1.43,2.36-.37,2.36-1.43,2.36M498.92,389.71v-3.96l2.75,4.42h.27v-4.83l.46-.46h-1.38l.46.46v3.36l-2.39-3.82h-1.09l.45.46v4.37l-.45.46h1.38l-.46-.46h0Z"/>
    </g>
  </g>
  <g id="left_large" class="st2">
    <g>
      <path class="st1" d="M336.41,390.31c0,1.97,1.67,3.48,3.73,3.48s3.89-1.45,3.89-3.48v-7.75l1.02-1.04h-3.14l1.04,1.04v7.75c0,1.38-1.1,2.48-2.49,2.48s-2.65-1.08-2.65-2.48v-7.75l1.04-1.04h-3.48l1.04,1.04v7.75h0ZM349.94,392.48v-8.99l6.45,10.03h.42v-10.97l1.04-1.04h-3.14l1.04,1.04v7.63l-5.42-8.67h-2.49l1.02,1.04v9.93l-1.02,1.04h3.14l-1.04-1.04h0ZM361.13,381.52l.96.96v10.09l-.96.96h3.24l-.96-.96v-10.09l.96-.96h-3.24ZM370.47,381.52h-3.4l.98.96,3.38,11.05h.61l3.49-11.05.98-.96h-2.9l.94.94-2.55,8.3-2.47-8.3.94-.94h0ZM386.06,393.52v-2.2l-1.28,1.3h-3.65v-5.05h2.71l.96.96v-2.81l-.96.96h-2.71v-4.27h3.65l1.28,1.28v-2.18h-7.19l.94.96v10.09l-.94.96h7.19ZM391.46,392.56v-4.64h1.81l2.91,5.59h2l-.94-.96-2.69-4.92c1.35-.41,2.26-1.67,2.26-2.81,0-2.03-1.89-3.32-3.89-3.32h-3.73l.94.96v10.09l-.94.96h3.22l-.96-.96h0ZM391.46,382.41h1.47c1.29,0,2.3,1.1,2.3,2.4s-1.04,2.22-2.3,2.22h-1.47v-4.62h0ZM406.91,390.18c0-1.18-.55-1.91-1.12-2.3l-2.44-1.77c-.88-.63-1.33-1.44-1.33-2.05,0-1.26,1.08-1.71,1.73-1.71.35,0,.59.14.78.14l1.06,1.14,1.12-1.67-2.39-.45c-.16-.04-.26-.06-.57-.06-2.1,0-3.06,1.79-3.06,2.95,0,.91.47,1.95,1.55,2.75l2.46,1.77c.67.47.86,1.16.86,1.75,0,1.02-.63,2.12-2,2.12-.33,0-.61-.06-.84-.16l-1.14-1.34-1.04,1.87,2.3.45s.39.08.71.08c1.45,0,3.34-1.22,3.34-3.5M410.4,381.52l.96.96v10.09l-.96.96h3.24l-.96-.96v-10.09l.96-.96h-3.24ZM421.3,392.56v-10.15h2.28l1.28,1.28v-2.18h-8.46v2.18l1.3-1.28h2.26v10.15l-.94.96h3.22l-.96-.96h0ZM427.64,382.47l3.04,5.47v4.62l-.96.96h3.24l-.95-.96v-4.62l3.1-5.45,1-.98h-2.98l.94.94-2.53,4.5-2.4-4.5.94-.94h-3.41l.98.96h0ZM447.96,385.92c-.44,0-1.13.2-1.83.61-1.17.69-2.44,2.26-2.44,4.63,0,1.18.56,2.5,2.13,2.5.75,0,1.81-.49,2.52-1.13,1.12-1.01,1.78-2.76,1.78-4.26,0-1.4-.75-2.35-2.17-2.35M445.06,390.75c0-2.5,1.27-3.85,1.8-4.07.15-.07.39-.13.56-.13.85,0,1.34.64,1.34,1.94.03,2.2-1.12,4.19-1.83,4.43-.14.05-.36.12-.53.12-.95,0-1.34-1.01-1.34-2.28M452.68,386.33l-.46.44.05.17h1.41c-.22,1.52-.42,2.84-.75,4.97-.46,3.16-.85,4.28-1.17,4.55-.1.1-.27.15-.42.15-.2,0-.53-.15-.75-.25-.2-.1-.37.02-.47.12-.14.15-.29.39-.29.57,0,.34.44.51.73.51.32,0,1.13-.27,1.86-1.17.57-.71,1.35-2.35,2.01-6.17.12-.71.25-1.42.54-3.28l1.73-.17.37-.44h-2c.51-3.13.93-4.07,1.66-4.07.51,0,.93.2,1.3.56.12.12.31.12.47-.02.13-.12.34-.39.34-.63.02-.34-.44-.71-1.02-.71-.98,0-2.02.57-2.73,1.42-.66.79-1.1,2.08-1.34,3.45h-1.1ZM471.9,393.52l2.75-8.69,2.67,8.69h.61l3.49-11.05.98-.96h-2.89l.94.94-2.55,8.3-2.47-8.3.94-.94h-3.41l.96.96.25.79-2.3,7.49-2.46-8.3.93-.94h-3.4l.98.96,3.38,11.05h.61ZM484.68,392.58l.88-2.54h3.97l.84,2.54-.94.94h3.4l-.96-.98-3.75-11.03h-.61l-3.81,11.03-.98.98h2.89l-.94-.94h0ZM487.58,384.18l1.65,4.96h-3.36l1.71-4.96h0ZM501.03,390.18c0-1.18-.55-1.91-1.12-2.3l-2.44-1.77c-.88-.63-1.33-1.44-1.33-2.05,0-1.26,1.08-1.71,1.73-1.71.35,0,.59.14.78.14l1.06,1.14,1.12-1.67-2.38-.45c-.16-.04-.26-.06-.57-.06-2.1,0-3.06,1.79-3.06,2.95,0,.91.47,1.95,1.55,2.75l2.47,1.77c.67.47.86,1.16.86,1.75,0,1.02-.63,2.12-2,2.12-.33,0-.61-.06-.84-.16l-1.14-1.34-1.04,1.87,2.3.45s.39.08.71.08c1.45,0,3.34-1.22,3.34-3.5M506.45,387.5h5.06v5.07l-.96.96h3.24l-.96-.96v-10.09l.96-.96h-3.24l.96.96v4.13h-5.06v-4.13l.96-.96h-3.22l.94.96v10.09l-.94.96h3.22l-.96-.96v-5.07h0ZM517.13,381.52l.96.96v10.09l-.96.96h3.24l-.96-.96v-10.09l.96-.96h-3.24ZM525.76,392.48v-8.99l6.33,10.04h.54v-10.97l1.04-1.04h-3.14l1.04,1.04v7.63l-5.42-8.67h-2.49l1.02,1.04v9.93l-1.02,1.04h3.14l-1.04-1.04h0ZM543.59,388.07v3.87c-.28.28-.85.85-1.98.85-2.67,0-4.01-2.69-4.01-5.27s1.69-5.27,4.01-5.27c.61,0,1.06.14,1.46.57l1.33,1.3v-2.08c-.71-.37-1.43-.69-2.79-.69-3.28,0-5.58,2.93-5.58,6.17s2.3,6.16,5.58,6.16c1.85,0,2.65-.45,3.3-.87v-4.74l.94-.96h-3.22l.96.96h0ZM553.19,392.56v-10.15h2.28l1.28,1.28v-2.18h-8.46v2.18l1.3-1.28h2.26v10.15l-.94.96h3.22l-.96-.96h0ZM559.32,387.52c0,3.05,1.73,6.27,4.81,6.27s4.83-3.22,4.83-6.27-1.73-6.27-4.83-6.27-4.81,3.21-4.81,6.27M564.13,392.87c-2.41,0-3.24-2.87-3.24-5.35s.83-5.35,3.24-5.35,3.26,2.87,3.26,5.35-.83,5.35-3.26,5.35M574.12,392.48v-8.99l6.25,10.03h.61v-10.97l1.04-1.04h-3.14l1.04,1.04v7.63l-5.42-8.67h-2.49l1.02,1.04v9.93l-1.02,1.04h3.14l-1.04-1.04h0Z"/>
      <polygon class="st1" points="295 375 295 379.02 297.55 379.02 302.02 396.98 308.29 396.98 311.27 385.74 314.12 396.98 320.4 396.98 325.11 379.02 327.54 379.02 327.54 375 318.91 375 318.91 379.02 321.76 379.02 318.66 390.71 314.81 375 310.83 375 306.61 390.83 303.57 379.02 306.67 379.02 306.67 375 295 375 295 375"/>
    </g>
  </g>
  <g id="stacked_small" class="st2">
    <g>
      <path class="st1" d="M411,390.43c0,.96.81,1.7,1.82,1.7s1.9-.71,1.9-1.7v-3.78l.5-.51h-1.53l.51.51v3.78c0,.68-.54,1.21-1.21,1.21s-1.29-.53-1.29-1.21v-3.78l.51-.51h-1.7l.51.51v3.78h0ZM417.84,391.49v-4.39l3.16,4.9h.19v-5.36l.5-.51h-1.53l.5.51v3.72l-2.64-4.23h-1.21l.5.51v4.84l-.5.51h1.53l-.51-.51h0ZM423.53,386.14l.47.47v4.92l-.47.47h1.58l-.47-.47v-4.92l.47-.47h-1.58ZM428.33,386.14h-1.66l.48.47,1.65,5.39h.3l1.7-5.39.48-.47h-1.41l.46.46-1.24,4.05-1.2-4.05.46-.46h0ZM436.17,392v-1.07l-.63.64h-1.78v-2.46h1.32l.47.47v-1.37l-.47.47h-1.32v-2.08h1.78l.63.62v-1.06h-3.5l.46.47v4.92l-.46.47h3.5ZM439.04,391.53v-2.26h.88l1.42,2.73h.97l-.46-.47-1.31-2.4c.66-.2,1.1-.81,1.1-1.37,0-.99-.92-1.62-1.9-1.62h-1.82l.46.47v4.92l-.46.47h1.57l-.47-.47h0ZM439.04,386.58h.71c.62,0,1.12.54,1.12,1.17s-.51,1.08-1.12,1.08h-.71v-2.25h0ZM446.81,390.37c0-.57-.27-.93-.55-1.12l-1.19-.86c-.43-.31-.65-.71-.65-1,0-.62.53-.83.84-.83.17,0,.29.07.38.07l.52.56.55-.81-1.16-.22c-.08-.02-.13-.03-.28-.03-1.02,0-1.49.87-1.49,1.44,0,.45.23.95.75,1.34l1.2.86c.33.23.42.57.42.86,0,.5-.31,1.03-.97,1.03-.16,0-.3-.03-.41-.08l-.56-.66-.51.91,1.12.22s.19.04.35.04c.71,0,1.63-.6,1.63-1.71M448.76,386.14l.47.47v4.92l-.47.47h1.58l-.47-.47v-4.92l.47-.47h-1.58ZM454.32,391.53v-4.95h1.11l.62.62v-1.06h-4.12v1.06l.64-.62h1.1v4.95l-.46.47h1.57l-.47-.47h0ZM457.65,386.61l1.48,2.67v2.25l-.47.47h1.58l-.47-.47v-2.25l1.51-2.66.49-.48h-1.45l.46.46-1.23,2.19-1.17-2.19.46-.46h-1.66l.48.47h0ZM466.54,388.3c-.21,0-.55.1-.89.3-.57.34-1.18,1.1-1.18,2.25,0,.58.27,1.22,1.04,1.22.36,0,.88-.24,1.23-.55.54-.49.86-1.34.86-2.07,0-.68-.36-1.14-1.05-1.14M465.13,390.65c0-1.22.62-1.87.87-1.98.07-.03.19-.07.27-.07.41,0,.65.31.65.95.02,1.07-.54,2.04-.89,2.15-.07.03-.17.06-.25.06-.46,0-.65-.49-.65-1.11M468.83,388.5l-.22.21.02.08h.68c-.11.74-.2,1.38-.36,2.42-.22,1.54-.41,2.08-.57,2.21-.05.05-.13.07-.21.07-.1,0-.25-.07-.36-.12-.1-.05-.18,0-.23.06-.07.08-.14.19-.14.28,0,.17.21.25.35.25.16,0,.55-.13.9-.57.28-.35.66-1.14.98-3,.06-.35.12-.69.26-1.6l.84-.08.18-.21h-.97c.25-1.52.45-1.98.81-1.98.25,0,.45.1.63.27.06.06.15.06.23,0,.07-.06.16-.19.16-.3,0-.17-.21-.35-.49-.35-.48,0-.98.28-1.32.69-.32.39-.54,1.01-.65,1.68h-.53Z"/>
      <path class="st1" d="M407.25,404.21l1.8-5.7,1.75,5.7h.4l2.28-7.24.64-.63h-1.89l.61.62-1.67,5.44-1.61-5.44.61-.62h-2.23l.63.63.16.52-1.51,4.91-1.61-5.44.61-.62h-2.23l.64.63,2.21,7.24h.4ZM415.08,403.6l.57-1.67h2.6l.55,1.67-.61.61h2.23l-.63-.64-2.45-7.23h-.4l-2.49,7.23-.64.64h1.89l-.61-.61h0ZM416.97,398.09l1.08,3.25h-2.2l1.12-3.25h0ZM425.58,402.02c0-.77-.36-1.25-.73-1.51l-1.6-1.16c-.57-.41-.87-.95-.87-1.35,0-.83.71-1.12,1.13-1.12.23,0,.39.09.51.09l.69.75.73-1.09-1.56-.29c-.11-.03-.17-.04-.37-.04-1.37,0-2,1.17-2,1.93,0,.6.31,1.28,1.01,1.8l1.61,1.16c.44.31.56.76.56,1.15,0,.67-.41,1.39-1.31,1.39-.21,0-.4-.04-.55-.11l-.75-.88-.68,1.23,1.51.29s.25.05.47.05c.95,0,2.19-.8,2.19-2.29M428.92,400.26h3.31v3.32l-.63.63h2.12l-.63-.63v-6.62l.63-.63h-2.12l.63.63v2.71h-3.31v-2.71l.63-.63h-2.11l.61.63v6.62l-.61.63h2.11l-.63-.63v-3.32h0ZM441.5,403.53v-5.89l4.19,6.57h.31s0-7.18,0-7.18l.68-.68h-2.05l.68.68v5l-3.55-5.68h-1.63l.67.68v6.51l-.67.68h2.05l-.68-.68h0ZM452.73,400.63v2.53c-.19.19-.56.56-1.29.56-1.75,0-2.63-1.76-2.63-3.46s1.11-3.46,2.63-3.46c.4,0,.69.09.96.37l.87.85v-1.36c-.47-.24-.93-.45-1.83-.45-2.15,0-3.66,1.92-3.66,4.04s1.51,4.04,3.66,4.04c1.21,0,1.73-.29,2.16-.57v-3.11l.61-.63h-2.11l.63.63h0ZM458.47,403.58v-6.66h1.49l.84.84v-1.43h-5.54v1.43l.85-.84h1.48v6.66l-.61.63h2.11l-.63-.63h0ZM461.6,400.28c0,2,1.13,4.11,3.15,4.11s3.16-2.11,3.16-4.11-1.13-4.11-3.16-4.11-3.15,2.11-3.15,4.11M464.75,403.78c-1.57,0-2.12-1.88-2.12-3.51s.55-3.51,2.12-3.51,2.13,1.88,2.13,3.51-.55,3.51-2.13,3.51M470.74,403.53v-5.89l4.16,6.58h.33v-7.19l.68-.68h-2.05l.68.68v5l-3.55-5.68h-1.63l.67.68v6.51l-.67.68h2.05l-.68-.68h0Z"/>
      <polygon class="st1" points="435.85 396.34 436.47 396.97 436.47 403.58 435.85 404.21 437.97 404.21 437.34 403.58 437.34 396.97 437.97 396.34 435.85 396.34 435.85 396.34"/>
      <polygon class="st1" points="431.28 369 431.28 370.98 432.54 370.98 434.74 379.85 437.83 379.85 439.3 374.3 440.71 379.85 443.81 379.85 446.14 370.98 447.33 370.98 447.33 369 443.07 369 443.07 370.98 444.48 370.98 442.95 376.75 441.05 369 439.09 369 437.01 376.81 435.51 370.98 437.04 370.98 437.04 369 431.28 369 431.28 369"/>
    </g>
  </g>
  <g id="bothell_stacked_large">
    <path class="st0" d="M79.26,0v13.1h9.21l-10.28,38.25S65.61.71,65.43,0h-13.3c-.19.7-13.8,51.35-13.8,51.35L28.87,13.1h9.58V0H0v13.1h8.52s14.7,58.81,14.88,59.52h20.64c.18-.7,9.85-37.45,9.85-37.45,0,0,9.19,36.75,9.36,37.45h20.64c.19-.7,15.66-59.52,15.66-59.52h8.45V0h-28.74Z"/>
  </g>
</svg>